<mxfile host="app.diagrams.net" modified="2024-06-27T13:42:36.416Z" agent="Mozilla/5.0 (X11; Linux x86_64) AppleWebKit/537.36 (KHTML, like Gecko) Chrome/125.0.0.0 Safari/537.36" version="24.6.3" etag="_EC9Bj1T8-TIZuiVENh-" type="github">
  <diagram name="Page-1" id="Ng1H40HfZqcBzfhoNFjW">
    <mxGraphModel>
      <root>
        <mxCell id="0" />
        <mxCell id="1" parent="0" />
      </root>
    </mxGraphModel>
  </diagram>
</mxfile>
